<svg width="41" height="30" viewBox="0 0 41 30" fill="none" xmlns="http://www.w3.org/2000/svg">
<g clip-path="url(#clip0_38_844)">
<path d="M2.80545 29.3931H0.282553C0.126608 29.3931 0 29.2835 0 29.1491V12.9603C0 12.8259 0.126608 12.7163 0.282553 12.7163H2.80545C2.9614 12.7163 3.08801 12.8259 3.08801 12.9603V29.1491C3.08801 29.2835 2.9614 29.3931 2.80545 29.3931Z" fill="#262642"/>
<path d="M18.357 9.32115H15.8326C15.6828 9.32115 15.5562 9.20535 15.55 9.05558C15.4111 5.74061 12.6705 3.08801 9.32152 3.08801C5.97258 3.08801 3.23352 5.74061 3.09455 9.05558C3.08838 9.20535 2.96177 9.32115 2.812 9.32115H0.287556C0.130067 9.32115 0.000371146 9.19145 0.00500316 9.03397C0.15786 4.02676 4.27881 0 9.32152 0C14.3642 0 18.4867 4.02676 18.6396 9.03397C18.6442 9.19145 18.5145 9.32115 18.357 9.32115Z" fill="#262642"/>
<path d="M40.0963 9.32115H37.5718C37.4221 9.32115 37.2955 9.20535 37.2893 9.05558C37.1503 5.74061 34.4097 3.08801 31.0608 3.08801C27.7118 3.08801 24.9728 5.74061 24.8338 9.05558C24.8276 9.20535 24.701 9.32115 24.5513 9.32115H22.0268C21.8693 9.32115 21.7396 9.19145 21.7443 9.03397C21.8971 4.02676 26.0181 0 31.0608 0C36.1035 0 40.226 4.02676 40.3788 9.03397C40.3835 9.19145 40.2538 9.32115 40.0963 9.32115Z" fill="#262642"/>
<path d="M37.5696 21.3898C37.4198 21.3898 37.3009 21.4903 37.287 21.6186C37.0013 24.4643 34.2945 26.4846 30.9468 26.4846C28.7418 26.4846 27.0417 26.2327 25.1393 24.9775C23.8005 24.0933 22.908 23.0871 22.1221 21.7824C21.4766 20.7128 20.981 19.6153 20.5131 18.4081L18.6987 12.9052C18.6647 12.8001 18.5536 12.729 18.427 12.729H15.9332C15.7432 12.729 15.6074 12.8867 15.663 13.0428L17.7506 18.9599C18.1536 20.1038 18.4192 20.838 18.9226 21.9417C19.0755 22.2755 19.4167 23.0005 19.619 23.3452C20.3401 24.5741 21.3469 25.8308 22.5452 26.7567C24.9231 28.593 27.2656 29.4231 31.0611 29.4231C36.1057 29.4231 40.2255 25.9529 40.3784 21.6387C40.383 21.5027 40.2533 21.3914 40.0958 21.3914H37.5711L37.5696 21.3898Z" fill="#262642"/>
</g>
<defs>
<clipPath id="clip0_38_844">
<rect width="40.3788" height="29.3932" fill="white"/>
</clipPath>
</defs>
</svg>
