<svg width="48" height="49" viewBox="0 0 48 49" fill="none" xmlns="http://www.w3.org/2000/svg">
<path d="M42 10.8936C42 14.2073 33.9411 16.8936 24 16.8936C14.0589 16.8936 6 14.2073 6 10.8936M42 10.8936C42 7.57985 33.9411 4.89355 24 4.89355C14.0589 4.89355 6 7.57985 6 10.8936M42 10.8936V38.8936C42 42.2136 34 44.8936 24 44.8936C14 44.8936 6 42.2136 6 38.8936V10.8936M42 20.334C42 23.654 34 26.334 24 26.334C14 26.334 6 23.654 6 20.334M42 29.7736C42 33.0936 34 35.7736 24 35.7736C14 35.7736 6 33.0936 6 29.7736" stroke="#6F2FF5" stroke-width="2" stroke-linecap="round" stroke-linejoin="round"/>
</svg>
