<svg width="612" height="437" viewBox="0 0 612 437" fill="none" xmlns="http://www.w3.org/2000/svg">
<g clip-path="url(#clip0_38_888)">
<path d="M83.9204 406H51.6177C49.6211 406 48 404.597 48 402.879V195.79C48 194.071 49.6211 192.669 51.6177 192.669H83.9204C85.917 192.669 87.5381 194.071 87.5381 195.79V402.879C87.5381 404.597 85.917 406 83.9204 406Z" fill="#262642"/>
<path d="M283.035 149.237H250.713C248.795 149.237 247.174 147.756 247.095 145.84C245.316 103.434 210.226 69.502 167.347 69.502C124.467 69.502 89.3972 103.434 87.618 145.84C87.5389 147.756 85.9178 149.237 84.0003 149.237H51.6779C49.6614 149.237 48.0008 147.578 48.0601 145.563C50.0173 81.5106 102.781 30 167.347 30C231.912 30 284.696 81.5106 286.653 145.563C286.712 147.578 285.051 149.237 283.035 149.237Z" fill="#262642"/>
<path d="M561.383 149.237H529.06C527.143 149.237 525.522 147.756 525.443 145.84C523.663 103.434 488.573 69.502 445.694 69.502C402.815 69.502 367.745 103.434 365.966 145.84C365.887 147.756 364.265 149.237 362.348 149.237H330.026C328.009 149.237 326.348 147.578 326.408 145.563C328.365 81.5106 381.128 30 445.694 30C510.26 30 563.043 81.5106 565 145.563C565.06 147.578 563.399 149.237 561.383 149.237Z" fill="#262642"/>
<path d="M529.036 303.623C527.118 303.623 525.596 304.908 525.418 306.549C521.76 342.952 487.102 368.796 444.239 368.796C416.006 368.796 394.239 365.573 369.881 349.517C352.74 338.206 341.313 325.334 331.249 308.645C322.985 294.962 316.639 280.923 310.648 265.48L287.418 195.087C286.983 193.743 285.559 192.833 283.938 192.833H252.008C249.577 192.833 247.837 194.85 248.549 196.847L275.279 272.539C280.439 287.172 283.839 296.564 290.285 310.682C292.242 314.953 296.611 324.227 299.201 328.636C308.434 344.356 321.325 360.432 336.667 372.276C367.113 395.767 397.106 406.385 445.702 406.385C510.293 406.385 563.041 361.994 564.999 306.806C565.058 305.066 563.397 303.643 561.381 303.643H529.055L529.036 303.623Z" fill="#262642"/>
</g>
<defs>
<clipPath id="clip0_38_888">
<rect width="517" height="376" fill="white" transform="translate(48 30)"/>
</clipPath>
</defs>
</svg>
