<svg width="41" height="30" viewBox="0 0 41 30" fill="none" xmlns="http://www.w3.org/2000/svg">
<path d="M2.80545 29.7862H0.282553C0.126608 29.7862 0 29.6765 0 29.5422V13.3533C0 13.219 0.126608 13.1094 0.282553 13.1094H2.80545C2.9614 13.1094 3.08801 13.219 3.08801 13.3533V29.5422C3.08801 29.6765 2.9614 29.7862 2.80545 29.7862Z" fill="#262642"/>
<path d="M18.357 9.71373H15.8326C15.6828 9.71373 15.5562 9.59793 15.55 9.44816C15.4111 6.13318 12.6705 3.48059 9.32152 3.48059C5.97258 3.48059 3.23352 6.13318 3.09455 9.44816C3.08838 9.59793 2.96177 9.71373 2.812 9.71373H0.287556C0.130067 9.71373 0.000371146 9.58403 0.00500316 9.42654C0.15786 4.41934 4.27881 0.392578 9.32152 0.392578C14.3642 0.392578 18.4867 4.41934 18.6396 9.42654C18.6442 9.58403 18.5145 9.71373 18.357 9.71373Z" fill="#262642"/>
<path d="M40.0963 9.71373H37.5718C37.4221 9.71373 37.2955 9.59793 37.2893 9.44816C37.1503 6.13318 34.4097 3.48059 31.0608 3.48059C27.7118 3.48059 24.9728 6.13318 24.8338 9.44816C24.8276 9.59793 24.701 9.71373 24.5513 9.71373H22.0268C21.8693 9.71373 21.7396 9.58403 21.7443 9.42654C21.8971 4.41934 26.0181 0.392578 31.0608 0.392578C36.1035 0.392578 40.226 4.41934 40.3788 9.42654C40.3835 9.58403 40.2538 9.71373 40.0963 9.71373Z" fill="#262642"/>
<path d="M37.5696 21.7829C37.4198 21.7829 37.3009 21.8834 37.287 22.0117C37.0013 24.8574 34.2945 26.8777 30.9468 26.8777C28.7418 26.8777 27.0417 26.6257 25.1393 25.3706C23.8005 24.4864 22.908 23.4801 22.1221 22.1755C21.4766 21.1059 20.981 20.0084 20.5131 18.8011L18.6987 13.2983C18.6647 13.1932 18.5536 13.1221 18.427 13.1221H15.9332C15.7432 13.1221 15.6074 13.2797 15.663 13.4359L17.7506 19.353C18.1536 20.4968 18.4192 21.2311 18.9226 22.3347C19.0755 22.6686 19.4167 23.3936 19.619 23.7383C20.3401 24.9671 21.3469 26.2238 22.5452 27.1497C24.9231 28.9861 27.2656 29.8161 31.0611 29.8161C36.1057 29.8161 40.2255 26.3459 40.3784 22.0318C40.383 21.8957 40.2533 21.7844 40.0958 21.7844H37.5711L37.5696 21.7829Z" fill="#262642"/>
</svg>
