<svg width="25" height="25" viewBox="0 0 25 25" fill="none" xmlns="http://www.w3.org/2000/svg">
<path d="M22.167 18.8931L15.5241 12.8931M9.80985 12.8931L3.16703 18.8931M2.66699 7.89307L10.8319 13.6085C11.4931 14.0713 11.8237 14.3027 12.1833 14.3924C12.5009 14.4715 12.8331 14.4715 13.1507 14.3924C13.5103 14.3027 13.8409 14.0713 14.5021 13.6085L22.667 7.89307M7.46699 20.8931H17.867C19.5471 20.8931 20.3872 20.8931 21.029 20.5661C21.5934 20.2785 22.0524 19.8195 22.34 19.255C22.667 18.6133 22.667 17.7732 22.667 16.0931V9.69307C22.667 8.01291 22.667 7.17283 22.34 6.53109C22.0524 5.96661 21.5934 5.50767 21.029 5.22005C20.3872 4.89307 19.5471 4.89307 17.867 4.89307H7.46699C5.78683 4.89307 4.94676 4.89307 4.30502 5.22005C3.74053 5.50767 3.28159 5.96661 2.99397 6.53109C2.66699 7.17283 2.66699 8.01291 2.66699 9.69307V16.0931C2.66699 17.7732 2.66699 18.6133 2.99397 19.255C3.28159 19.8195 3.74053 20.2785 4.30502 20.5661C4.94676 20.8931 5.78683 20.8931 7.46699 20.8931Z" stroke="#6F2FF5" stroke-width="2" stroke-linecap="round" stroke-linejoin="round"/>
</svg>
