<svg width="25" height="25" viewBox="0 0 25 25" fill="none" xmlns="http://www.w3.org/2000/svg">
<path d="M8.88028 9.74642C9.57627 11.196 10.5251 12.5547 11.7266 13.7563C12.9282 14.9578 14.2869 15.9066 15.7365 16.6026C15.8612 16.6625 15.9235 16.6924 16.0024 16.7154C16.2828 16.7971 16.627 16.7384 16.8644 16.5684C16.9313 16.5206 16.9884 16.4634 17.1027 16.3491C17.4523 15.9995 17.6271 15.8247 17.8029 15.7104C18.4658 15.2794 19.3204 15.2794 19.9833 15.7104C20.1591 15.8247 20.3339 15.9995 20.6835 16.3491L20.8783 16.544C21.4098 17.0754 21.6755 17.3412 21.8198 17.6265C22.1069 18.1941 22.1069 18.8644 21.8198 19.4319C21.6755 19.7173 21.4098 19.983 20.8783 20.5145L20.7207 20.6721C20.1911 21.2017 19.9263 21.4665 19.5662 21.6688C19.1667 21.8932 18.5462 22.0546 18.088 22.0532C17.6751 22.052 17.3928 21.9719 16.8284 21.8117C13.795 20.9507 10.9326 19.3262 8.54466 16.9382C6.15668 14.5503 4.53221 11.6879 3.67124 8.6545C3.51103 8.09006 3.43092 7.80783 3.4297 7.39489C3.42833 6.93666 3.58969 6.31617 3.81411 5.91667C4.01636 5.55663 4.28117 5.29182 4.8108 4.7622L4.96843 4.60456C5.49987 4.07312 5.7656 3.8074 6.05098 3.66306C6.61854 3.37599 7.2888 3.37599 7.85636 3.66306C8.14174 3.8074 8.40747 4.07312 8.93891 4.60456L9.13378 4.79943C9.48338 5.14904 9.65819 5.32384 9.77247 5.49962C10.2035 6.16251 10.2035 7.01709 9.77247 7.67998C9.65819 7.85576 9.48338 8.03056 9.13378 8.38017C9.01947 8.49448 8.96231 8.55164 8.91447 8.61845C8.74446 8.85588 8.68576 9.20014 8.76748 9.48049C8.79048 9.55938 8.82041 9.62173 8.88028 9.74642Z" stroke="#6F2FF5" stroke-width="2" stroke-linecap="round" stroke-linejoin="round"/>
</svg>
